<mxfile host="app.diagrams.net" modified="2023-12-21T15:12:53.868Z" agent="Mozilla/5.0 (Windows NT 10.0; Win64; x64) AppleWebKit/537.36 (KHTML, like Gecko) Chrome/120.0.0.0 Safari/537.36" version="22.1.11" etag="nF3qa_rwz6iMXpIs_frm" type="github">
  <diagram name="Page-1" id="dpSzTjp27l3Y4wRQzpri">
    <mxGraphModel dx="1861" dy="1623" grid="1" gridSize="10" guides="1" tooltips="1" connect="1" arrows="1" fold="1" page="1" pageScale="1" pageWidth="827" pageHeight="1169" math="0" shadow="0">
      <root>
        <mxCell id="0" />
        <mxCell id="1" parent="0" />
        <mxCell id="aeb6ncdT7JwG7wCMBw5e-1" value="" style="childLayout=tableLayout;recursiveResize=0;shadow=0;strokeColor=#E6E6E6;align=center;" parent="1" vertex="1">
          <mxGeometry x="-576" y="-89" width="841" height="305" as="geometry" />
        </mxCell>
        <mxCell id="aeb6ncdT7JwG7wCMBw5e-2" value="" style="shape=tableRow;horizontal=0;startSize=0;swimlaneHead=0;swimlaneBody=0;top=0;left=0;bottom=0;right=0;dropTarget=0;collapsible=0;recursiveResize=0;expand=0;fontStyle=0;fillColor=none;strokeColor=inherit;" parent="aeb6ncdT7JwG7wCMBw5e-1" vertex="1">
          <mxGeometry width="841" height="44" as="geometry" />
        </mxCell>
        <mxCell id="aeb6ncdT7JwG7wCMBw5e-3" value="&lt;span style=&quot;white-space: pre;&quot;&gt;&#x9;&lt;/span&gt;STEP" style="connectable=0;recursiveResize=0;strokeColor=inherit;fillColor=none;align=left;whiteSpace=wrap;html=1;fontStyle=1" parent="aeb6ncdT7JwG7wCMBw5e-2" vertex="1">
          <mxGeometry width="480" height="44" as="geometry">
            <mxRectangle width="480" height="44" as="alternateBounds" />
          </mxGeometry>
        </mxCell>
        <mxCell id="aeb6ncdT7JwG7wCMBw5e-4" value="&lt;span style=&quot;white-space: pre;&quot;&gt;&#x9;&lt;/span&gt;COST CALCULATION" style="connectable=0;recursiveResize=0;strokeColor=inherit;fillColor=none;align=left;whiteSpace=wrap;html=1;fontStyle=1" parent="aeb6ncdT7JwG7wCMBw5e-2" vertex="1">
          <mxGeometry x="480" width="200" height="44" as="geometry">
            <mxRectangle width="200" height="44" as="alternateBounds" />
          </mxGeometry>
        </mxCell>
        <mxCell id="aeb6ncdT7JwG7wCMBw5e-5" value="&lt;span style=&quot;white-space: pre;&quot;&gt;&#x9;&lt;/span&gt;STEP COST" style="connectable=0;recursiveResize=0;strokeColor=inherit;fillColor=none;align=left;whiteSpace=wrap;html=1;fontStyle=1" parent="aeb6ncdT7JwG7wCMBw5e-2" vertex="1">
          <mxGeometry x="680" width="161" height="44" as="geometry">
            <mxRectangle width="161" height="44" as="alternateBounds" />
          </mxGeometry>
        </mxCell>
        <mxCell id="aeb6ncdT7JwG7wCMBw5e-6" style="shape=tableRow;horizontal=0;startSize=0;swimlaneHead=0;swimlaneBody=0;top=0;left=0;bottom=0;right=0;dropTarget=0;collapsible=0;recursiveResize=0;expand=0;fontStyle=0;fillColor=none;strokeColor=inherit;align=left;" parent="aeb6ncdT7JwG7wCMBw5e-1" vertex="1">
          <mxGeometry y="44" width="841" height="41" as="geometry" />
        </mxCell>
        <mxCell id="aeb6ncdT7JwG7wCMBw5e-7" value="&lt;span style=&quot;white-space: pre;&quot;&gt;&#x9;&lt;/span&gt;1 USER opens set #iterations window&amp;nbsp;" style="connectable=0;recursiveResize=0;strokeColor=inherit;fillColor=none;align=left;whiteSpace=wrap;html=1;" parent="aeb6ncdT7JwG7wCMBw5e-6" vertex="1">
          <mxGeometry width="480" height="41" as="geometry">
            <mxRectangle width="480" height="41" as="alternateBounds" />
          </mxGeometry>
        </mxCell>
        <mxCell id="aeb6ncdT7JwG7wCMBw5e-8" value="1 x 1 x 2.5" style="connectable=0;recursiveResize=0;strokeColor=inherit;fillColor=none;align=center;whiteSpace=wrap;html=1;" parent="aeb6ncdT7JwG7wCMBw5e-6" vertex="1">
          <mxGeometry x="480" width="200" height="41" as="geometry">
            <mxRectangle width="200" height="41" as="alternateBounds" />
          </mxGeometry>
        </mxCell>
        <mxCell id="aeb6ncdT7JwG7wCMBw5e-9" value="2.5" style="connectable=0;recursiveResize=0;strokeColor=inherit;fillColor=none;align=center;whiteSpace=wrap;html=1;" parent="aeb6ncdT7JwG7wCMBw5e-6" vertex="1">
          <mxGeometry x="680" width="161" height="41" as="geometry">
            <mxRectangle width="161" height="41" as="alternateBounds" />
          </mxGeometry>
        </mxCell>
        <mxCell id="aeb6ncdT7JwG7wCMBw5e-10" style="shape=tableRow;horizontal=0;startSize=0;swimlaneHead=0;swimlaneBody=0;top=0;left=0;bottom=0;right=0;dropTarget=0;collapsible=0;recursiveResize=0;expand=0;fontStyle=0;fillColor=none;strokeColor=inherit;" parent="aeb6ncdT7JwG7wCMBw5e-1" vertex="1">
          <mxGeometry y="85" width="841" height="44" as="geometry" />
        </mxCell>
        <mxCell id="aeb6ncdT7JwG7wCMBw5e-11" value="&lt;span style=&quot;white-space: pre;&quot;&gt;&#x9;&lt;/span&gt;2 SYSTEM shows the number of iterations and &quot;START TRAIN&quot; button" style="connectable=0;recursiveResize=0;strokeColor=inherit;fillColor=none;align=left;whiteSpace=wrap;html=1;" parent="aeb6ncdT7JwG7wCMBw5e-10" vertex="1">
          <mxGeometry width="480" height="44" as="geometry">
            <mxRectangle width="480" height="44" as="alternateBounds" />
          </mxGeometry>
        </mxCell>
        <mxCell id="aeb6ncdT7JwG7wCMBw5e-12" value="" style="connectable=0;recursiveResize=0;strokeColor=inherit;fillColor=none;align=left;whiteSpace=wrap;html=1;" parent="aeb6ncdT7JwG7wCMBw5e-10" vertex="1">
          <mxGeometry x="480" width="200" height="44" as="geometry">
            <mxRectangle width="200" height="44" as="alternateBounds" />
          </mxGeometry>
        </mxCell>
        <mxCell id="aeb6ncdT7JwG7wCMBw5e-13" value="" style="connectable=0;recursiveResize=0;strokeColor=inherit;fillColor=none;align=left;whiteSpace=wrap;html=1;" parent="aeb6ncdT7JwG7wCMBw5e-10" vertex="1">
          <mxGeometry x="680" width="161" height="44" as="geometry">
            <mxRectangle width="161" height="44" as="alternateBounds" />
          </mxGeometry>
        </mxCell>
        <mxCell id="2" style="shape=tableRow;horizontal=0;startSize=0;swimlaneHead=0;swimlaneBody=0;top=0;left=0;bottom=0;right=0;dropTarget=0;collapsible=0;recursiveResize=0;expand=0;fontStyle=0;fillColor=none;strokeColor=inherit;" parent="aeb6ncdT7JwG7wCMBw5e-1" vertex="1">
          <mxGeometry y="129" width="841" height="44" as="geometry" />
        </mxCell>
        <mxCell id="3" value="&lt;span style=&quot;white-space: pre;&quot;&gt;&#x9;&lt;/span&gt;3&amp;nbsp;USER may change the number of iterations" style="connectable=0;recursiveResize=0;strokeColor=inherit;fillColor=none;align=left;whiteSpace=wrap;html=1;" parent="2" vertex="1">
          <mxGeometry width="480" height="44" as="geometry">
            <mxRectangle width="480" height="44" as="alternateBounds" />
          </mxGeometry>
        </mxCell>
        <mxCell id="4" value="0.25 x 4 x 2.5" style="connectable=0;recursiveResize=0;strokeColor=inherit;fillColor=none;align=center;whiteSpace=wrap;html=1;" parent="2" vertex="1">
          <mxGeometry x="480" width="200" height="44" as="geometry">
            <mxRectangle width="200" height="44" as="alternateBounds" />
          </mxGeometry>
        </mxCell>
        <mxCell id="5" value="2.5" style="connectable=0;recursiveResize=0;strokeColor=inherit;fillColor=none;align=center;whiteSpace=wrap;html=1;" parent="2" vertex="1">
          <mxGeometry x="680" width="161" height="44" as="geometry">
            <mxRectangle width="161" height="44" as="alternateBounds" />
          </mxGeometry>
        </mxCell>
        <mxCell id="aeb6ncdT7JwG7wCMBw5e-18" style="shape=tableRow;horizontal=0;startSize=0;swimlaneHead=0;swimlaneBody=0;top=0;left=0;bottom=0;right=0;dropTarget=0;collapsible=0;recursiveResize=0;expand=0;fontStyle=0;fillColor=none;strokeColor=inherit;" parent="aeb6ncdT7JwG7wCMBw5e-1" vertex="1">
          <mxGeometry y="173" width="841" height="44" as="geometry" />
        </mxCell>
        <mxCell id="aeb6ncdT7JwG7wCMBw5e-19" value="&lt;span style=&quot;&quot;&gt;&lt;span style=&quot;white-space: pre;&quot;&gt;&amp;nbsp;&amp;nbsp;&amp;nbsp;&amp;nbsp;&lt;span style=&quot;white-space: pre;&quot;&gt;&#x9;&lt;/span&gt;4&lt;/span&gt;&lt;/span&gt;&amp;nbsp;USER clicks on the &quot;START TRAIN&quot; button" style="connectable=0;recursiveResize=0;strokeColor=inherit;fillColor=none;align=left;whiteSpace=wrap;html=1;" parent="aeb6ncdT7JwG7wCMBw5e-18" vertex="1">
          <mxGeometry width="480" height="44" as="geometry">
            <mxRectangle width="480" height="44" as="alternateBounds" />
          </mxGeometry>
        </mxCell>
        <mxCell id="aeb6ncdT7JwG7wCMBw5e-20" value="1 x 1 x 2.5" style="connectable=0;recursiveResize=0;strokeColor=inherit;fillColor=none;align=center;whiteSpace=wrap;html=1;" parent="aeb6ncdT7JwG7wCMBw5e-18" vertex="1">
          <mxGeometry x="480" width="200" height="44" as="geometry">
            <mxRectangle width="200" height="44" as="alternateBounds" />
          </mxGeometry>
        </mxCell>
        <mxCell id="aeb6ncdT7JwG7wCMBw5e-21" value="2.5" style="connectable=0;recursiveResize=0;strokeColor=inherit;fillColor=none;align=center;whiteSpace=wrap;html=1;" parent="aeb6ncdT7JwG7wCMBw5e-18" vertex="1">
          <mxGeometry x="680" width="161" height="44" as="geometry">
            <mxRectangle width="161" height="44" as="alternateBounds" />
          </mxGeometry>
        </mxCell>
        <mxCell id="aeb6ncdT7JwG7wCMBw5e-77" style="shape=tableRow;horizontal=0;startSize=0;swimlaneHead=0;swimlaneBody=0;top=0;left=0;bottom=0;right=0;dropTarget=0;collapsible=0;recursiveResize=0;expand=0;fontStyle=0;fillColor=none;strokeColor=inherit;" parent="aeb6ncdT7JwG7wCMBw5e-1" vertex="1">
          <mxGeometry y="217" width="841" height="44" as="geometry" />
        </mxCell>
        <mxCell id="aeb6ncdT7JwG7wCMBw5e-78" value="&lt;span style=&quot;white-space: pre;&quot;&gt;&#x9;&lt;/span&gt;5&amp;nbsp;USER closes the set #iterations windows" style="connectable=0;recursiveResize=0;strokeColor=inherit;fillColor=none;align=left;whiteSpace=wrap;html=1;" parent="aeb6ncdT7JwG7wCMBw5e-77" vertex="1">
          <mxGeometry width="480" height="44" as="geometry">
            <mxRectangle width="480" height="44" as="alternateBounds" />
          </mxGeometry>
        </mxCell>
        <mxCell id="aeb6ncdT7JwG7wCMBw5e-79" value="1 x 1 x 2.5" style="connectable=0;recursiveResize=0;strokeColor=inherit;fillColor=none;align=center;whiteSpace=wrap;html=1;" parent="aeb6ncdT7JwG7wCMBw5e-77" vertex="1">
          <mxGeometry x="480" width="200" height="44" as="geometry">
            <mxRectangle width="200" height="44" as="alternateBounds" />
          </mxGeometry>
        </mxCell>
        <mxCell id="aeb6ncdT7JwG7wCMBw5e-80" value="2.5" style="connectable=0;recursiveResize=0;strokeColor=inherit;fillColor=none;align=center;whiteSpace=wrap;html=1;" parent="aeb6ncdT7JwG7wCMBw5e-77" vertex="1">
          <mxGeometry x="680" width="161" height="44" as="geometry">
            <mxRectangle width="161" height="44" as="alternateBounds" />
          </mxGeometry>
        </mxCell>
        <mxCell id="aeb6ncdT7JwG7wCMBw5e-22" style="shape=tableRow;horizontal=0;startSize=0;swimlaneHead=0;swimlaneBody=0;top=0;left=0;bottom=0;right=0;dropTarget=0;collapsible=0;recursiveResize=0;expand=0;fontStyle=0;fillColor=none;strokeColor=inherit;" parent="aeb6ncdT7JwG7wCMBw5e-1" vertex="1">
          <mxGeometry y="261" width="841" height="44" as="geometry" />
        </mxCell>
        <mxCell id="aeb6ncdT7JwG7wCMBw5e-23" value="" style="connectable=0;recursiveResize=0;strokeColor=inherit;fillColor=none;align=left;whiteSpace=wrap;html=1;" parent="aeb6ncdT7JwG7wCMBw5e-22" vertex="1">
          <mxGeometry width="480" height="44" as="geometry">
            <mxRectangle width="480" height="44" as="alternateBounds" />
          </mxGeometry>
        </mxCell>
        <mxCell id="aeb6ncdT7JwG7wCMBw5e-24" value="&#x9;&lt;span style=&quot;font-weight: 700;&quot;&gt;&lt;span style=&quot;white-space: pre;&quot;&gt;&#x9;&lt;/span&gt;HUMAN TASK COST&lt;/span&gt;" style="connectable=0;recursiveResize=0;strokeColor=inherit;fillColor=none;align=left;whiteSpace=wrap;html=1;" parent="aeb6ncdT7JwG7wCMBw5e-22" vertex="1">
          <mxGeometry x="480" width="200" height="44" as="geometry">
            <mxRectangle width="200" height="44" as="alternateBounds" />
          </mxGeometry>
        </mxCell>
        <mxCell id="aeb6ncdT7JwG7wCMBw5e-25" value="&lt;b&gt;10&lt;/b&gt;" style="connectable=0;recursiveResize=0;strokeColor=inherit;fillColor=none;align=center;whiteSpace=wrap;html=1;" parent="aeb6ncdT7JwG7wCMBw5e-22" vertex="1">
          <mxGeometry x="680" width="161" height="44" as="geometry">
            <mxRectangle width="161" height="44" as="alternateBounds" />
          </mxGeometry>
        </mxCell>
      </root>
    </mxGraphModel>
  </diagram>
</mxfile>
